<?xml version="1.0" encoding="UTF-8" standalone="no"?>
<!-- Created with Inkscape (http://www.inkscape.org/) -->

<svg
   xmlns:dc="http://purl.org/dc/elements/1.1/"
   xmlns:cc="http://creativecommons.org/ns#"
   xmlns:rdf="http://www.w3.org/1999/02/22-rdf-syntax-ns#"
   xmlns:svg="http://www.w3.org/2000/svg"
   xmlns="http://www.w3.org/2000/svg"
   xmlns:sodipodi="http://sodipodi.sourceforge.net/DTD/sodipodi-0.dtd"
   xmlns:inkscape="http://www.inkscape.org/namespaces/inkscape"
   width="16px"
   height="16px"
   id="svg5704"
   version="1.1"
   inkscape:version="0.48.5 r10040"
   sodipodi:docname="New document 25">
  <defs
     id="defs5706" />
  <sodipodi:namedview
     id="base"
     pagecolor="#ffffff"
     bordercolor="#666666"
     borderopacity="1.0"
     inkscape:pageopacity="0.0"
     inkscape:pageshadow="2"
     inkscape:zoom="25.438285"
     inkscape:cx="10.626609"
     inkscape:cy="7.8091969"
     inkscape:current-layer="layer1"
     showgrid="true"
     inkscape:grid-bbox="true"
     inkscape:document-units="px"
     inkscape:window-width="1366"
     inkscape:window-height="705"
     inkscape:window-x="-8"
     inkscape:window-y="-8"
     inkscape:window-maximized="1" />
  <metadata
     id="metadata5709">
    <rdf:RDF>
      <cc:Work
         rdf:about="">
        <dc:format>image/svg+xml</dc:format>
        <dc:type
           rdf:resource="http://purl.org/dc/dcmitype/StillImage" />
        <dc:title></dc:title>
      </cc:Work>
    </rdf:RDF>
  </metadata>
  <g
     id="layer1"
     inkscape:label="Layer 1"
     inkscape:groupmode="layer">
    <path
       style="fill:#a05a2c;fill-opacity:1;stroke:none"
       d="m 6.1700763,1.3501511 0.6772832,0 c 0.4907598,0 0.8858479,0.3950882 0.8858479,0.885848 l 0,2.9050642 c 0,0.4907597 -0.3950881,0.885848 -0.8858479,0.885848 l -0.6772832,0 c -0.4907599,0 -0.8858479,-0.3950883 -0.8858479,-0.885848 l 0,-2.9050642 c 0,-0.4907598 0.395088,-0.885848 0.8858479,-0.885848 z"
       id="rect6394"
       inkscape:connector-curvature="0" />
    <path
       style="fill:#a05a2c;fill-opacity:1;stroke:none"
       inkscape:transform-center-x="0.0013940193"
       inkscape:transform-center-y="-0.9996728"
       d="M 10.061226,8.2059749 3.1269258,8.2011456 6.5982579,2.1982804 z"
       id="path6390"
       inkscape:connector-curvature="0" />
    <path
       style="fill:#a05a2c;fill-opacity:1;stroke:#000000;stroke-width:0.78431708;stroke-linecap:round;stroke-linejoin:round;stroke-miterlimit:4;stroke-opacity:1;stroke-dashoffset:0"
       d="m 9.5308012,7.1848886 c 1.4840438,1.766995 1.3489048,4.4872024 -0.3018396,6.0757554 -1.650745,1.588554 -4.191993,1.4439 -5.6760364,-0.323095 C 2.1818496,11.305061 2.1788623,8.8294373 3.5459938,7.1931631"
       id="path6224"
       inkscape:connector-curvature="0" />
    <path
       style="fill:none;stroke:#000000;stroke-width:0.76378232;stroke-linecap:round;stroke-linejoin:miter;stroke-miterlimit:4;stroke-opacity:1;stroke-dasharray:none"
       d="m 3.6048663,7.1282751 c 0,0 0.1802246,-0.1937746 0.3092284,-0.44007 0.6806108,-1.2994247 2.6153159,-5.354933 0.9755421,-5.3138317"
       id="path6236"
       inkscape:connector-curvature="0"
       sodipodi:nodetypes="csc" />
    <path
       style="fill:none;stroke:#000000;stroke-width:0.8078444;stroke-linecap:round;stroke-linejoin:miter;stroke-miterlimit:4;stroke-opacity:1;stroke-dasharray:none"
       d="m 8.7625,14.801663 -4.7901622,0"
       id="path6274"
       inkscape:connector-curvature="0" />
    <path
       style="fill:none;stroke:#000000;stroke-width:0.80823851;stroke-linecap:round;stroke-linejoin:miter;stroke-miterlimit:4;stroke-opacity:1;stroke-dasharray:none"
       d="m 9.4393103,1.3555439 -5.7248857,0"
       id="path6274-0"
       inkscape:connector-curvature="0"
       sodipodi:nodetypes="cc" />
    <path
       style="fill:none;stroke:#000000;stroke-width:0.76378232;stroke-linecap:round;stroke-linejoin:miter;stroke-miterlimit:4;stroke-opacity:1;stroke-dasharray:none"
       d="m 9.4830079,7.1297959 c 0,0 -0.1802246,-0.1937747 -0.3092284,-0.4400698 C 8.4931686,5.3903011 6.5584635,1.3347928 8.1982372,1.3758943"
       id="path6236-8"
       inkscape:connector-curvature="0"
       sodipodi:nodetypes="csc" />
    <path
       style="fill:#808080;fill-opacity:1;stroke:#000000;stroke-width:0.77963924;stroke-linecap:round;stroke-linejoin:round;stroke-miterlimit:4;stroke-opacity:1;stroke-dashoffset:0"
       d="m 8.7484974,7.6398523 3.8478816,0 c 0.490761,0 0.885847,0.3950884 0.885847,0.8858483 l 0,5.3932654 c 0,0.490759 -0.395086,0.885849 -0.885847,0.885849 l -3.8478816,0 c -0.4907597,0 -0.885848,-0.39509 -0.885848,-0.885849 l 0,-5.3932654 c 0,-0.4907599 0.3950883,-0.8858483 0.885848,-0.8858483 z"
       id="rect5712"
       inkscape:connector-curvature="0" />
  </g>
</svg>
