<?xml version="1.0" encoding="UTF-8" standalone="no"?>
<!-- Created with Inkscape (http://www.inkscape.org/) -->

<svg
   xmlns:dc="http://purl.org/dc/elements/1.1/"
   xmlns:cc="http://creativecommons.org/ns#"
   xmlns:rdf="http://www.w3.org/1999/02/22-rdf-syntax-ns#"
   xmlns:svg="http://www.w3.org/2000/svg"
   xmlns="http://www.w3.org/2000/svg"
   xmlns:sodipodi="http://sodipodi.sourceforge.net/DTD/sodipodi-0.dtd"
   xmlns:inkscape="http://www.inkscape.org/namespaces/inkscape"
   width="48px"
   height="48px"
   id="svg3029"
   version="1.1"
   inkscape:version="0.48.5 r10040"
   sodipodi:docname="highlighter_tip.svg"
   inkscape:export-filename="C:\Users\Gemma\PycharmProjects\clay\icons\highlighter_tip.png"
   inkscape:export-xdpi="121.30542"
   inkscape:export-ydpi="121.30542">
  <defs
     id="defs3031" />
  <sodipodi:namedview
     id="base"
     pagecolor="#ffffff"
     bordercolor="#666666"
     borderopacity="1.0"
     inkscape:pageopacity="0.0"
     inkscape:pageshadow="2"
     inkscape:zoom="9.7885021"
     inkscape:cx="38.85466"
     inkscape:cy="24.462313"
     inkscape:current-layer="layer1"
     showgrid="true"
     inkscape:grid-bbox="true"
     inkscape:document-units="px"
     showguides="true"
     inkscape:guide-bbox="true"
     inkscape:window-width="1366"
     inkscape:window-height="705"
     inkscape:window-x="-8"
     inkscape:window-y="-8"
     inkscape:window-maximized="1">
    <sodipodi:guide
       orientation="0,1"
       position="5.2101945,51.897624"
       id="guide3811" />
  </sodipodi:namedview>
  <metadata
     id="metadata3034">
    <rdf:RDF>
      <cc:Work
         rdf:about="">
        <dc:format>image/svg+xml</dc:format>
        <dc:type
           rdf:resource="http://purl.org/dc/dcmitype/StillImage" />
        <dc:title></dc:title>
      </cc:Work>
    </rdf:RDF>
  </metadata>
  <g
     id="layer1"
     inkscape:label="Layer 1"
     inkscape:groupmode="layer">
    <rect
       style="fill:none;stroke:#000000;stroke-width:0;stroke-linecap:square;stroke-linejoin:miter;stroke-miterlimit:4;stroke-opacity:1;stroke-dasharray:none;stroke-dashoffset:0"
       id="rect3142"
       width="12.571428"
       height="0"
       x="19"
       y="19.285715" />
    <path
       sodipodi:nodetypes="cssssc"
       inkscape:connector-curvature="0"
       id="use3266-1"
       d="m 25.042201,33.177598 c 0,0 2.466717,-2.230653 5.5232,-4.091827 0.764118,-0.465295 1.565097,-0.907495 2.37361,-1.28598 0.808511,-0.378483 1.624554,-0.693247 2.418802,-0.903664 0.79425,-0.210417 1.566703,-0.316488 2.28803,-0.277589 0.721332,0.03889 1.391548,0.222726 1.981294,0.592248"
       style="fill:#ffffff;fill-opacity:1;stroke:#000000;stroke-width:2;stroke-linecap:round;stroke-linejoin:miter;stroke-miterlimit:4;stroke-opacity:1;stroke-dasharray:none"
       inkscape:export-filename="C:\Users\Gemma\PycharmProjects\clay\icons\highlighter_tip.png"
       inkscape:export-xdpi="121.30542"
       inkscape:export-ydpi="121.30542" />
    <path
       sodipodi:nodetypes="cssssc"
       inkscape:connector-curvature="0"
       id="use3266-1-5"
       d="m 16.256264,24.993777 c 0,0 2.213078,-2.481623 4.050843,-5.548673 0.459443,-0.766761 0.895429,-1.570111 1.267516,-2.380421 0.372086,-0.810311 0.680272,-1.627581 0.884118,-2.422185 0.203851,-0.794598 0.303338,-1.566537 0.258058,-2.286173 -0.04528,-0.719638 -0.235358,-1.386981 -0.61066,-1.972397"
       style="fill:none;stroke:#000000;stroke-width:2;stroke-linecap:round;stroke-linejoin:miter;stroke-miterlimit:4;stroke-opacity:1;stroke-dasharray:none"
       inkscape:export-filename="C:\Users\Gemma\PycharmProjects\clay\icons\highlighter_tip.png"
       inkscape:export-xdpi="121.30542"
       inkscape:export-ydpi="121.30542" />
    <path
       style="fill:none;stroke:#000000;stroke-width:2;stroke-linecap:round;stroke-linejoin:miter;stroke-miterlimit:4;stroke-opacity:1;stroke-dasharray:none"
       d="M 22.419115,10.293066 39.797105,27.05275"
       id="path3200-8-2"
       inkscape:connector-curvature="0"
       inkscape:export-filename="C:\Users\Gemma\PycharmProjects\clay\icons\highlighter_tip.png"
       inkscape:export-xdpi="121.30542"
       inkscape:export-ydpi="121.30542" />
    <path
       style="font-size:medium;font-style:normal;font-variant:normal;font-weight:normal;font-stretch:normal;text-indent:0;text-align:start;text-decoration:none;line-height:normal;letter-spacing:normal;word-spacing:normal;text-transform:none;direction:ltr;block-progression:tb;writing-mode:lr-tb;text-anchor:start;baseline-shift:baseline;color:#000000;fill:#000000;fill-opacity:1;fill-rule:nonzero;stroke:none;stroke-width:1px;marker:none;visibility:visible;display:inline;overflow:visible;enable-background:accumulate;font-family:Sans;-inkscape-font-specification:Sans"
       d="m 14.063216,31.133741 -0.352947,0.337792 -4.4556731,4.576307 c 0,0 -0.2226247,0.231518 -0.2907545,0.373962 -0.050321,0.105191 -0.1036696,0.226251 -0.080212,0.340465 0.037943,0.184755 0.1832241,0.344913 0.3363575,0.45503 0.123025,0.08846 0.43257,0.139748 0.43257,0.139748 l 5.8917881,1.000209 c 0,0 0.165907,0.03242 0.249869,0.03211 0.105818,-5.09e-4 0.214577,-0.0085 0.314469,-0.04347 0.100097,-0.035 0.189655,-0.09747 0.273624,-0.162229 0.08621,-0.06647 0.232487,-0.229329 0.232487,-0.229329 l 2.667749,-2.752811 0.504401,-0.568123 -0.59104,-0.361373 -4.728323,-2.891002 z m 0.116438,1.547439 3.732886,2.282368 -2.02709,2.220541 -5.250188,-0.903446 z"
       id="path3414"
       inkscape:connector-curvature="0"
       sodipodi:nodetypes="cccaaaccaaaccccccccccc"
       inkscape:export-filename="C:\Users\Gemma\PycharmProjects\clay\icons\highlighter_tip.png"
       inkscape:export-xdpi="121.30542"
       inkscape:export-ydpi="121.30542" />
    <path
       style="fill:#000000;fill-opacity:1;stroke:#000000;stroke-width:1.50300002;stroke-linecap:round;stroke-linejoin:miter;stroke-miterlimit:4;stroke-opacity:1;stroke-dasharray:none;stroke-dashoffset:0"
       d="m 10.60537,36.176498 c 0.0071,-0.01075 0.798793,-0.817745 1.75936,-1.793367 0.960587,-0.975602 1.750361,-1.779757 1.755121,-1.786941 0.0047,-0.0073 0.842936,0.494642 1.862644,1.115193 1.426719,0.868244 1.849173,1.135602 1.832992,1.160116 -0.07104,0.107605 -1.968858,2.163556 -2.007743,2.175022 -0.02626,0.0077 -1.185392,-0.176737 -2.575886,-0.40998 -1.390509,-0.233161 -2.553192,-0.427773 -2.58376,-0.43233 -0.03053,-0.0046 -0.04978,-0.01702 -0.0428,-0.0277 z"
       id="path4192"
       inkscape:connector-curvature="0"
       inkscape:export-filename="C:\Users\Gemma\PycharmProjects\clay\icons\highlighter_tip.png"
       inkscape:export-xdpi="121.30542"
       inkscape:export-ydpi="121.30542" />
    <path
       style="fill:#ffffff;fill-opacity:1;stroke:#000000;stroke-width:2;stroke-linecap:round;stroke-linejoin:miter;stroke-miterlimit:4;stroke-opacity:1;stroke-dashoffset:0"
       d="m 24.442375,12.928273 12.555705,12.1129 c 0.31609,0.304941 0.325063,0.804903 0.02012,1.12099 -0.304942,0.316088 -0.804902,0.325062 -1.120991,0.02012 L 23.341505,14.069385 c -0.316088,-0.304941 -0.325062,-0.804902 -0.02012,-1.120991 0.304941,-0.316087 0.804901,-0.325063 1.120991,-0.02012 z"
       id="rect4214"
       inkscape:connector-curvature="0"
       inkscape:export-filename="C:\Users\Gemma\PycharmProjects\clay\icons\highlighter_tip.png"
       inkscape:export-xdpi="121.30542"
       inkscape:export-ydpi="121.30542" />
    <path
       style="fill:#ffffff;fill-opacity:1;stroke:#000000;stroke-width:1.99999976;stroke-linecap:round;stroke-linejoin:miter;stroke-miterlimit:4;stroke-opacity:1;stroke-dashoffset:0"
       d="m 17.277153,25.071469 7.512238,7.247301 c 0.316089,0.30494 0.325063,0.804903 0.02012,1.120991 l -2.781685,2.883373 c -0.30494,0.31609 -0.804901,0.325063 -1.12099,0.02012 l -7.512238,-7.2473 c -0.316086,-0.304938 -0.325062,-0.8049 -0.02012,-1.120989 l 2.781686,-2.883374 c 0.30494,-0.316088 0.804902,-0.325062 1.120989,-0.02012 z"
       id="rect4216"
       inkscape:connector-curvature="0"
       inkscape:export-filename="C:\Users\Gemma\PycharmProjects\clay\icons\highlighter_tip.png"
       inkscape:export-xdpi="121.30542"
       inkscape:export-ydpi="121.30542" />
    <path
       style="color:#000000;fill:#ffffff;fill-opacity:1;fill-rule:nonzero;stroke:#000000;stroke-width:1.99999976;stroke-linecap:round;stroke-linejoin:miter;stroke-miterlimit:4;stroke-opacity:1;stroke-dasharray:none;stroke-dashoffset:0;marker:none;visibility:visible;display:inline;overflow:visible;enable-background:accumulate"
       d="m 22.043379,27.701917 c -1.852136,-1.79134 -3.367797,-3.289058 -3.368137,-3.328262 -3.37e-4,-0.0392 0.364727,-0.568467 0.811255,-1.176139 1.699943,-2.313423 2.870739,-4.304138 3.680001,-6.257149 0.300871,-0.726094 0.305032,-0.731683 0.451149,-0.605888 0.74172,0.638554 9.949094,9.605356 9.905475,9.646662 -0.03159,0.02992 -0.265945,0.141343 -0.520775,0.247608 -1.881562,0.784614 -4.285047,2.242905 -6.534818,3.964934 -0.55579,0.425415 -1.0209,0.771622 -1.033577,0.769347 -0.0127,-0.0022 -1.538436,-1.469774 -3.390573,-3.261113 l 0,0 z"
       id="path3801"
       inkscape:connector-curvature="0"
       inkscape:export-filename="C:\Users\Gemma\PycharmProjects\clay\icons\highlighter_tip.png"
       inkscape:export-xdpi="121.30542"
       inkscape:export-ydpi="121.30542" />
    <path
       style="color:#000000;fill:#ffffff;fill-opacity:1;fill-rule:nonzero;stroke:#ffffff;stroke-width:1.99999976;stroke-linecap:round;stroke-linejoin:miter;stroke-miterlimit:4;stroke-opacity:1;stroke-dasharray:none;stroke-dashoffset:0;marker:none;visibility:visible;display:inline;overflow:visible;enable-background:accumulate"
       d="m 23.628384,27.251227 c -1.058258,-1.018222 -2.193404,-2.119196 -2.52255,-2.446609 l -0.598446,-0.595296 0.672139,-0.95141 c 1.001579,-1.417733 1.90343,-2.89333 2.557482,-4.184522 l 0.229538,-0.453145 0.543609,0.524427 c 0.954761,0.921068 2.842595,2.757631 4.73107,4.602585 l 1.834454,1.792174 -1.057096,0.605824 c -1.472666,0.843989 -3.225888,2.001809 -4.394326,2.901992 -0.04164,0.03208 -0.879557,-0.721935 -1.995874,-1.79602 l 0,0 z"
       id="path3803"
       inkscape:connector-curvature="0"
       inkscape:export-filename="C:\Users\Gemma\PycharmProjects\clay\icons\highlighter_tip.png"
       inkscape:export-xdpi="121.30542"
       inkscape:export-ydpi="121.30542" />
    <path
       style="color:#000000;fill:#ffffff;fill-opacity:1;fill-rule:nonzero;stroke:#ffffff;stroke-width:1.99999976;stroke-linecap:round;stroke-linejoin:miter;stroke-miterlimit:4;stroke-opacity:1;stroke-dasharray:none;stroke-dashoffset:0;marker:none;visibility:visible;display:inline;overflow:visible;enable-background:accumulate"
       d="m 25.161417,26.744502 c -0.254831,-0.243136 -0.986554,-0.950899 -1.626053,-1.572806 l -1.162725,-1.130739 0.599389,-0.902869 c 0.329665,-0.496577 0.768045,-1.184521 0.97418,-1.528764 l 0.37479,-0.625896 0.331108,0.302065 c 0.182109,0.166137 1.175554,1.123701 2.207656,2.127923 l 1.876549,1.825857 -0.664769,0.4184 c -0.365623,0.23012 -1.040723,0.668868 -1.500221,0.974994 -0.459499,0.306128 -0.860456,0.555988 -0.891016,0.555247 -0.03056,-7.41e-4 -0.264058,-0.200277 -0.518888,-0.443412 z"
       id="path3805"
       inkscape:connector-curvature="0"
       inkscape:export-filename="C:\Users\Gemma\PycharmProjects\clay\icons\highlighter_tip.png"
       inkscape:export-xdpi="121.30542"
       inkscape:export-ydpi="121.30542" />
    <path
       style="color:#000000;fill:#ffffff;fill-opacity:1;fill-rule:nonzero;stroke:#000000;stroke-width:1.99999976;stroke-linecap:round;stroke-linejoin:miter;stroke-miterlimit:4;stroke-opacity:1;stroke-dasharray:none;stroke-dashoffset:0;marker:none;visibility:visible;display:inline;overflow:visible;enable-background:accumulate"
       d=""
       id="path3807"
       inkscape:connector-curvature="0" />
    <path
       style="color:#000000;fill:#ffffff;fill-opacity:1;fill-rule:nonzero;stroke:#ffffff;stroke-width:1.99999976;stroke-linecap:round;stroke-linejoin:miter;stroke-miterlimit:4;stroke-opacity:1;stroke-dasharray:none;stroke-dashoffset:0;marker:none;visibility:visible;display:inline;overflow:visible;enable-background:accumulate"
       d="m 25.025371,24.635521 -0.813217,-0.764592 0.171687,-0.300518 c 0.09443,-0.165284 0.204244,-0.300763 0.244037,-0.301066 0.03978,-3.01e-4 0.468986,0.397043 0.953765,0.882986 0.867143,0.869232 0.878667,0.884991 0.711742,0.97339 -0.09332,0.04941 -0.233825,0.131369 -0.312235,0.182121 -0.130156,0.08423 -0.213364,0.0257 -0.955779,-0.672321 z"
       id="path3809"
       inkscape:connector-curvature="0"
       inkscape:export-xdpi="121.30542"
       inkscape:export-ydpi="121.30542"
       inkscape:export-filename="C:\Users\Gemma\PycharmProjects\clay\icons\highlighter_tip.png" />
  </g>
</svg>
