<?xml version="1.0" encoding="UTF-8" standalone="no"?>
<!-- Created with Inkscape (http://www.inkscape.org/) -->

<svg
   xmlns:dc="http://purl.org/dc/elements/1.1/"
   xmlns:cc="http://creativecommons.org/ns#"
   xmlns:rdf="http://www.w3.org/1999/02/22-rdf-syntax-ns#"
   xmlns:svg="http://www.w3.org/2000/svg"
   xmlns="http://www.w3.org/2000/svg"
   xmlns:sodipodi="http://sodipodi.sourceforge.net/DTD/sodipodi-0.dtd"
   xmlns:inkscape="http://www.inkscape.org/namespaces/inkscape"
   width="48px"
   height="48px"
   id="svg4272"
   version="1.1"
   inkscape:version="0.48.5 r10040"
   sodipodi:docname="New document 25">
  <defs
     id="defs4274" />
  <sodipodi:namedview
     id="base"
     pagecolor="#ffffff"
     bordercolor="#666666"
     borderopacity="1.0"
     inkscape:pageopacity="0.0"
     inkscape:pageshadow="2"
     inkscape:zoom="12.685948"
     inkscape:cx="13.631253"
     inkscape:cy="26.787774"
     inkscape:current-layer="layer1"
     showgrid="true"
     inkscape:grid-bbox="true"
     inkscape:document-units="px"
     showguides="true"
     inkscape:guide-bbox="true"
     inkscape:window-width="1366"
     inkscape:window-height="705"
     inkscape:window-x="-8"
     inkscape:window-y="-8"
     inkscape:window-maximized="1">
    <sodipodi:guide
       orientation="0,1"
       position="5.0449519,40.51727"
       id="guide5637" />
  </sodipodi:namedview>
  <metadata
     id="metadata4277">
    <rdf:RDF>
      <cc:Work
         rdf:about="">
        <dc:format>image/svg+xml</dc:format>
        <dc:type
           rdf:resource="http://purl.org/dc/dcmitype/StillImage" />
        <dc:title></dc:title>
      </cc:Work>
    </rdf:RDF>
  </metadata>
  <g
     id="layer1"
     inkscape:label="Layer 1"
     inkscape:groupmode="layer">
    <path
       sodipodi:type="arc"
       style="fill:none;stroke:#000000;stroke-width:2;stroke-linecap:round;stroke-linejoin:miter;stroke-miterlimit:4;stroke-opacity:1;stroke-dasharray:none;stroke-dashoffset:0"
       id="path4969"
       sodipodi:cx="21.928572"
       sodipodi:cy="23.642857"
       sodipodi:rx="11.214286"
       sodipodi:ry="11.214286"
       d="m 33.142858,23.642857 a 11.214286,11.214286 0 1 1 -22.428572,0 11.214286,11.214286 0 1 1 22.428572,0 z" />
    <path
       sodipodi:type="arc"
       style="fill:#000000;stroke:#000000;stroke-width:1.78717053;stroke-linecap:round;stroke-linejoin:miter;stroke-miterlimit:4;stroke-opacity:1;stroke-dasharray:none;stroke-dashoffset:0"
       id="path5481"
       sodipodi:cx="25.542608"
       sodipodi:cy="26.409266"
       sodipodi:rx="3.6305847"
       sodipodi:ry="3.6627138"
       d="m 29.173193,26.409266 a 3.6305847,3.6627138 0 0 1 -3.630585,3.662713 l 0,-3.662713 z"
       sodipodi:start="0"
       sodipodi:end="1.5707963"
       transform="matrix(1.7640948,0,0,0.7099146,-22.181721,7.5510827)" />
    <path
       sodipodi:type="arc"
       style="fill:none;stroke:none;stroke-width:1.18181622000000000;stroke-linecap:round;stroke-linejoin:miter;stroke-miterlimit:4;stroke-opacity:1;stroke-dasharray:none;stroke-dashoffset:0"
       id="path5481-8"
       sodipodi:cx="25.542608"
       sodipodi:cy="26.409266"
       sodipodi:rx="3.6305847"
       sodipodi:ry="3.6627138"
       d="m 29.173193,26.409266 a 3.6305847,3.6627138 0 0 1 -3.630585,3.662713 l 0,-3.662713 z"
       sodipodi:start="0"
       sodipodi:end="1.5707963"
       transform="matrix(-2.108392,0,0,-1.3583409,75.681179,65.985392)" />
    <path
       sodipodi:type="arc"
       style="fill:#000000;stroke:#000000;stroke-width:1.5;stroke-linecap:round;stroke-linejoin:miter;stroke-miterlimit:4;stroke-opacity:1;stroke-dasharray:none;stroke-dashoffset:0"
       id="path5507"
       sodipodi:cx="17.15625"
       sodipodi:cy="19.5"
       sodipodi:rx="0.84375"
       sodipodi:ry="1.4375"
       d="m 18,19.5 a 0.84375,1.4375 0 1 1 -1.6875,0 0.84375,1.4375 0 1 1 1.6875,0 z"
       transform="matrix(1.7777778,0,0,1,-4.4375,0.25)" />
    <path
       style="fill:#000000;fill-opacity:1;stroke:none"
       d="m 12.713761,30.324462 c -1.49279,-2.980557 -1.738968,-6.323581 -0.698316,-9.482879 1.284176,-3.898604 4.459475,-6.934592 8.283926,-7.920482 0.381954,-0.09846 0.842491,-0.201392 1.023415,-0.228734 0.180926,-0.02735 0.386522,-0.06643 0.45688,-0.08686 0.121117,-0.03515 0.127928,0.302929 0.127928,6.349626 l 0,6.386763 -0.237578,0.03604 c -1.794712,0.272176 -2.614052,0.478508 -3.746426,0.94345 -2.225003,0.913564 -3.991904,2.601886 -4.602638,4.397952 l -0.165564,0.48689 -0.441627,-0.881768 0,0 z"
       id="path5535"
       inkscape:connector-curvature="0" />
    <path
       style="fill:#000000;fill-opacity:1;stroke:none"
       d="M 21.034772,34.715102 C 19.465127,34.375828 17.903979,33.73603 16.520679,32.86512 15.500395,32.222759 13.961255,30.943358 13.337566,30.219176 l -0.487688,-0.566264 4.478677,-0.005 c 3.994775,-0.0046 4.485182,0.01647 4.538898,0.193077 0.08749,0.287718 0.07407,5.062974 -0.01416,5.047751 -0.04092,-0.007 -0.409245,-0.08522 -0.818488,-0.173664 z"
       id="path5537"
       inkscape:connector-curvature="0" />
    <path
       sodipodi:type="arc"
       style="fill:#ffffff;fill-opacity:1;stroke:#ffffff;stroke-width:1.5;stroke-linecap:round;stroke-linejoin:miter;stroke-miterlimit:4;stroke-opacity:1;stroke-dasharray:none;stroke-dashoffset:0"
       id="path5507-7"
       sodipodi:cx="17.15625"
       sodipodi:cy="19.5"
       sodipodi:rx="0.84375"
       sodipodi:ry="1.4375"
       d="m 18,19.5 a 0.84375,1.4375 0 1 1 -1.6875,0 0.84375,1.4375 0 1 1 1.6875,0 z"
       transform="matrix(1.7777778,0,0,1,-13.011086,0.3750001)" />
  </g>
</svg>
