<?xml version="1.0" encoding="UTF-8" standalone="no"?>
<!-- Created with Inkscape (http://www.inkscape.org/) -->

<svg
   xmlns:dc="http://purl.org/dc/elements/1.1/"
   xmlns:cc="http://creativecommons.org/ns#"
   xmlns:rdf="http://www.w3.org/1999/02/22-rdf-syntax-ns#"
   xmlns:svg="http://www.w3.org/2000/svg"
   xmlns="http://www.w3.org/2000/svg"
   xmlns:sodipodi="http://sodipodi.sourceforge.net/DTD/sodipodi-0.dtd"
   xmlns:inkscape="http://www.inkscape.org/namespaces/inkscape"
   width="16px"
   height="16px"
   id="svg2990"
   version="1.1"
   inkscape:version="0.48.5 r10040"
   sodipodi:docname="sentiment_analysis.svg"
   inkscape:export-filename="C:\Users\Gemma\PycharmProjects\clay\icons\sentiment_analysis.png"
   inkscape:export-xdpi="173.19067"
   inkscape:export-ydpi="173.19067">
  <defs
     id="defs2992" />
  <sodipodi:namedview
     id="base"
     pagecolor="#ffffff"
     bordercolor="#666666"
     borderopacity="1.0"
     inkscape:pageopacity="0.0"
     inkscape:pageshadow="2"
     inkscape:zoom="21.396421"
     inkscape:cx="8.213801"
     inkscape:cy="10.228057"
     inkscape:current-layer="layer1"
     showgrid="true"
     inkscape:grid-bbox="true"
     inkscape:document-units="px"
     inkscape:window-width="1366"
     inkscape:window-height="705"
     inkscape:window-x="-8"
     inkscape:window-y="-8"
     inkscape:window-maximized="1" />
  <metadata
     id="metadata2995">
    <rdf:RDF>
      <cc:Work
         rdf:about="">
        <dc:format>image/svg+xml</dc:format>
        <dc:type
           rdf:resource="http://purl.org/dc/dcmitype/StillImage" />
        <dc:title></dc:title>
      </cc:Work>
    </rdf:RDF>
  </metadata>
  <g
     id="layer1"
     inkscape:label="Layer 1"
     inkscape:groupmode="layer">
    <path
       sodipodi:type="arc"
       style="fill:none;stroke:#000000;stroke-width:2;stroke-linecap:round;stroke-linejoin:miter;stroke-miterlimit:4;stroke-opacity:1;stroke-dasharray:none;stroke-dashoffset:0"
       id="path4969"
       sodipodi:cx="21.928572"
       sodipodi:cy="23.642857"
       sodipodi:rx="11.214286"
       sodipodi:ry="11.214286"
       d="m 33.142858,23.642857 a 11.214286,11.214286 0 1 1 -22.428572,0 11.214286,11.214286 0 1 1 22.428572,0 z"
       transform="matrix(0.56519722,0,0,0.56519722,-4.3336493,-5.4120663)"
       inkscape:export-filename="C:\Users\Gemma\PycharmProjects\clay\icons\sentiment_analysis.png"
       inkscape:export-xdpi="173.19067"
       inkscape:export-ydpi="173.19067" />
    <path
       sodipodi:type="arc"
       style="fill:#000000;stroke:#000000;stroke-width:1.78717053;stroke-linecap:round;stroke-linejoin:miter;stroke-miterlimit:4;stroke-opacity:1;stroke-dasharray:none;stroke-dashoffset:0"
       id="path5481"
       sodipodi:cx="25.542608"
       sodipodi:cy="26.409266"
       sodipodi:rx="3.6305847"
       sodipodi:ry="3.6627138"
       d="m 29.173193,26.409266 a 3.6305847,3.6627138 0 0 1 -3.630585,3.662713 l 0,-3.662713 z"
       sodipodi:start="0"
       sodipodi:end="1.5707963"
       transform="matrix(0.99706146,0,0,-0.40124176,-16.870696,21.518419)"
       inkscape:export-filename="C:\Users\Gemma\PycharmProjects\clay\icons\sentiment_analysis.png"
       inkscape:export-xdpi="173.19067"
       inkscape:export-ydpi="173.19067" />
    <path
       sodipodi:type="arc"
       style="fill:none;stroke:none"
       id="path5481-8"
       sodipodi:cx="25.542608"
       sodipodi:cy="26.409266"
       sodipodi:rx="3.6305847"
       sodipodi:ry="3.6627138"
       d="m 29.173193,26.409266 a 3.6305847,3.6627138 0 0 1 -3.630585,3.662713 l 0,-3.662713 z"
       sodipodi:start="0"
       sodipodi:end="1.5707963"
       transform="matrix(-1.1916573,0,0,-0.76773051,38.441143,31.882694)"
       inkscape:export-filename="C:\Users\Gemma\PycharmProjects\clay\icons\sentiment_analysis.png"
       inkscape:export-xdpi="173.19067"
       inkscape:export-ydpi="173.19067" />
    <path
       sodipodi:type="arc"
       style="fill:#000000;stroke:#000000;stroke-width:1.5;stroke-linecap:round;stroke-linejoin:miter;stroke-miterlimit:4;stroke-opacity:1;stroke-dasharray:none;stroke-dashoffset:0"
       id="path5507"
       sodipodi:cx="17.15625"
       sodipodi:cy="19.5"
       sodipodi:rx="0.84375"
       sodipodi:ry="1.4375"
       d="m 18,19.5 a 0.84375,1.4375 0 1 1 -1.6875,0 0.84375,1.4375 0 1 1 1.6875,0 z"
       transform="matrix(1.0047951,0,0,0.56519722,-6.8417122,-5.270767)"
       inkscape:export-filename="C:\Users\Gemma\PycharmProjects\clay\icons\sentiment_analysis.png"
       inkscape:export-xdpi="173.19067"
       inkscape:export-ydpi="173.19067" />
    <path
       style="fill:#000000;fill-opacity:1;stroke:none"
       d="M 2.8521332,11.727236 C 2.0084125,10.042633 1.8692733,8.153165 2.4574469,6.3675392 3.1832596,4.1640585 4.9779298,2.4481268 7.1394988,1.8909044 7.3553782,1.8352552 7.6156724,1.7770782 7.7179301,1.7616246 7.820189,1.7461666 7.9363912,1.7240786 7.9761574,1.7125316 c 0.068455,-0.019867 0.072305,0.1712145 0.072305,3.5887913 l 0,3.6097797 -0.1342785,0.020369 C 6.8998174,9.0853054 6.4367288,9.2019234 5.7967142,9.4647074 4.5391487,9.981051 3.5405012,10.935286 3.195316,11.950418 l -0.093576,0.275188 -0.2496064,-0.498373 0,0 z"
       id="path5535"
       inkscape:connector-curvature="0"
       inkscape:export-filename="C:\Users\Gemma\PycharmProjects\clay\icons\sentiment_analysis.png"
       inkscape:export-xdpi="173.19067"
       inkscape:export-ydpi="173.19067" />
    <path
       sodipodi:type="arc"
       style="fill:#ffffff;fill-opacity:1;stroke:#ffffff;stroke-width:1.5;stroke-linecap:round;stroke-linejoin:miter;stroke-miterlimit:4;stroke-opacity:1;stroke-dasharray:none;stroke-dashoffset:0"
       id="path5507-7"
       sodipodi:cx="17.15625"
       sodipodi:cy="19.5"
       sodipodi:rx="0.84375"
       sodipodi:ry="1.4375"
       d="m 18,19.5 a 0.84375,1.4375 0 1 1 -1.6875,0 0.84375,1.4375 0 1 1 1.6875,0 z"
       transform="matrix(1.0047951,0,0,0.56519722,-11.687479,-5.2001173)"
       inkscape:export-filename="C:\Users\Gemma\PycharmProjects\clay\icons\sentiment_analysis.png"
       inkscape:export-xdpi="173.19067"
       inkscape:export-ydpi="173.19067" />
    <path
       style="fill:#ffffff;fill-opacity:1;stroke:none"
       d="M 7.5041704,11.628481 C 6.6118383,11.467553 5.7193959,11.141923 4.9236541,10.686918 4.3367368,10.351318 3.4462765,9.6750894 3.0820829,9.2884017 L 2.7973051,8.9860367 5.3275018,8.9123874 c 2.2568167,-0.065791 2.5342215,-0.062029 2.5674551,0.03384 0.054131,0.1561697 0.1245791,2.7713372 0.074487,2.7643982 -0.023231,-0.0031 -0.2326001,-0.04019 -0.4652514,-0.08213 z"
       id="path5537"
       inkscape:connector-curvature="0"
       inkscape:export-filename="C:\Users\Gemma\PycharmProjects\clay\icons\sentiment_analysis.png"
       inkscape:export-xdpi="173.19067"
       inkscape:export-ydpi="173.19067" />
    <path
       sodipodi:type="arc"
       style="fill:#000000;stroke:#000000;stroke-width:1.78717053;stroke-linecap:round;stroke-linejoin:miter;stroke-miterlimit:4;stroke-opacity:1;stroke-dasharray:none;stroke-dashoffset:0"
       id="path5481-0"
       sodipodi:cx="25.542608"
       sodipodi:cy="26.409266"
       sodipodi:rx="3.6305847"
       sodipodi:ry="3.6627138"
       d="m 29.173193,26.409266 a 3.6305847,3.6627138 0 0 1 -3.630585,3.662713 l 0,-3.662713 z"
       sodipodi:start="0"
       sodipodi:end="1.5707963"
       transform="matrix(-0.99706146,0,0,1.2301668,32.498729,-23.817644)"
       inkscape:export-filename="C:\Users\Gemma\PycharmProjects\clay\icons\sentiment_analysis.png"
       inkscape:export-xdpi="173.19067"
       inkscape:export-ydpi="173.19067" />
    <path
       style="color:#000000;fill:#ffffff;fill-opacity:1;fill-rule:nonzero;stroke:none;stroke-width:1px;marker:none;visibility:visible;display:inline;overflow:visible;enable-background:accumulate"
       d="M 7.3051374,11.45158 C 6.0332281,11.399888 5.1350986,11.215752 4.4166102,10.859353 3.6255559,10.466958 3.3515426,10.081164 3.2620815,9.2338458 l -0.034466,-0.3264263 2.3921605,-0.013033 2.3921604,-0.013033 0.00712,1.3064155 c 0.00392,0.71853 0.00203,1.303217 -0.00418,1.299305 -0.00621,-0.0039 -0.3255961,-0.01988 -0.7097338,-0.0355 z"
       id="path3882"
       inkscape:connector-curvature="0" />
  </g>
</svg>
