<?xml version="1.0" encoding="UTF-8" standalone="no"?>
<!-- Created with Inkscape (http://www.inkscape.org/) -->

<svg
   xmlns:dc="http://purl.org/dc/elements/1.1/"
   xmlns:cc="http://creativecommons.org/ns#"
   xmlns:rdf="http://www.w3.org/1999/02/22-rdf-syntax-ns#"
   xmlns:svg="http://www.w3.org/2000/svg"
   xmlns="http://www.w3.org/2000/svg"
   xmlns:sodipodi="http://sodipodi.sourceforge.net/DTD/sodipodi-0.dtd"
   xmlns:inkscape="http://www.inkscape.org/namespaces/inkscape"
   width="48px"
   height="48px"
   id="svg4916"
   version="1.1"
   inkscape:version="0.48.5 r10040"
   sodipodi:docname="New document 32">
  <defs
     id="defs4918" />
  <sodipodi:namedview
     id="base"
     pagecolor="#ffffff"
     bordercolor="#666666"
     borderopacity="1.0"
     inkscape:pageopacity="0.0"
     inkscape:pageshadow="2"
     inkscape:zoom="1.7579231"
     inkscape:cx="95.710787"
     inkscape:cy="3.2404512"
     inkscape:current-layer="layer1"
     showgrid="true"
     inkscape:grid-bbox="true"
     inkscape:document-units="px"
     inkscape:window-width="1366"
     inkscape:window-height="705"
     inkscape:window-x="-8"
     inkscape:window-y="-8"
     inkscape:window-maximized="1" />
  <metadata
     id="metadata4921">
    <rdf:RDF>
      <cc:Work
         rdf:about="">
        <dc:format>image/svg+xml</dc:format>
        <dc:type
           rdf:resource="http://purl.org/dc/dcmitype/StillImage" />
        <dc:title></dc:title>
      </cc:Work>
    </rdf:RDF>
  </metadata>
  <g
     id="layer1"
     inkscape:label="Layer 1"
     inkscape:groupmode="layer">
    <path
       sodipodi:type="arc"
       style="fill:none;stroke:#000000;stroke-width:1.92918098;stroke-linecap:round;stroke-linejoin:miter;stroke-miterlimit:4;stroke-opacity:1;stroke-dasharray:none;stroke-dashoffset:0"
       id="path4288"
       sodipodi:cx="21.660233"
       sodipodi:cy="22.682846"
       sodipodi:rx="6.0198565"
       sodipodi:ry="6.6387205"
       d="m 27.680089,22.682846 a 6.0198565,6.6387205 0 1 1 -12.039713,0 6.0198565,6.6387205 0 1 1 12.039713,0 z"
       transform="matrix(0.61812769,-0.87922749,0.8180638,0.57512748,-12.874592,32.567964)" />
    <path
       sodipodi:type="arc"
       style="fill:none;stroke:#000000;stroke-width:1.92918098;stroke-linecap:round;stroke-linejoin:miter;stroke-miterlimit:4;stroke-opacity:1;stroke-dasharray:none;stroke-dashoffset:0"
       id="path4288-7"
       sodipodi:cx="21.660233"
       sodipodi:cy="22.682846"
       sodipodi:rx="6.0198565"
       sodipodi:ry="6.6387205"
       d="m 27.680089,22.682846 a 6.0198565,6.6387205 0 1 1 -12.039713,0 6.0198565,6.6387205 0 1 1 12.039713,0 z"
       transform="matrix(0.61812769,-0.87922749,0.8180638,0.57512748,-5.8721601,32.572382)" />
    <path
       sodipodi:type="arc"
       style="fill:none;stroke:#000000;stroke-width:1.92918098;stroke-linecap:round;stroke-linejoin:miter;stroke-miterlimit:4;stroke-opacity:1;stroke-dasharray:none;stroke-dashoffset:0"
       id="path4288-7-6"
       sodipodi:cx="21.660233"
       sodipodi:cy="22.682846"
       sodipodi:rx="6.0198565"
       sodipodi:ry="6.6387205"
       d="m 27.680089,22.682846 a 6.0198565,6.6387205 0 1 1 -12.039713,0 6.0198565,6.6387205 0 1 1 12.039713,0 z"
       transform="matrix(0.61812769,-0.87922749,0.8180638,0.57512748,-9.4498107,26.12212)" />
    <path
       style="fill:#000000;fill-opacity:1;stroke:#000000;stroke-width:1.99999988;stroke-linecap:round;stroke-linejoin:miter;stroke-miterlimit:4;stroke-opacity:1;stroke-dasharray:none;stroke-dashoffset:0"
       d="M 21.320356,25.434524 20.71595,25.278843 20.73494,25.02997 c 0.03481,-0.456202 0.67964,-1.628888 1.213356,-2.206614 l 0.487033,-0.527192 0.442749,0.42231 c 0.552078,0.526594 1.036965,1.248799 1.335429,1.989028 0.267698,0.663926 0.287236,0.634148 -0.517043,0.788032 -0.772529,0.147809 -1.653187,0.125197 -2.376108,-0.06101 z"
       id="path4967"
       inkscape:connector-curvature="0" />
  </g>
</svg>
